<?xml version="1.0" encoding="utf-8"?>
<!-- Generator: Adobe Illustrator 19.2.1, SVG Export Plug-In . SVG Version: 6.00 Build 0)  -->
<svg version="1.1" id="Layer_1" xmlns="http://www.w3.org/2000/svg" xmlns:xlink="http://www.w3.org/1999/xlink" x="0px" y="0px"
	 viewBox="0 0 862 862" style="enable-background:new 0 0 862 862;" xml:space="preserve">
<path d="M862,168.6c0,174.9,0,349.8,0,524.7c-0.2,0.9-0.4,1.7-0.5,2.6c-1.4,9.2-2.1,18.6-4.3,27.6c-11.7,48.2-38.8,85.5-80.8,111.9
	c-21.4,13.5-44.9,21.7-70,25c-4.3,0.6-8.7,1.1-13,1.6c-174.9,0-349.8,0-524.7,0c-0.9-0.2-1.7-0.4-2.6-0.5
	c-10.5-1.7-21.2-2.6-31.5-5.3c-41.2-10.8-74.6-33.5-99.9-67.8C16.6,764,5.6,736.6,1.6,706.4c-0.6-4.3-1.1-8.7-1.6-13
	c0-174.9,0-349.8,0-524.7c0.2-0.9,0.4-1.9,0.5-2.8c1-7.3,1.5-14.7,3-21.8c10.6-49.7,37.4-88.5,80-116.1c22-14.2,46.1-22.9,72.1-26.2
	c4.3-0.6,8.7-1.1,13-1.6c174.9,0,349.8,0,524.7,0c0.5,0.1,1,0.3,1.5,0.4c8.6,1.2,17.3,1.8,25.8,3.6c42.1,9.4,76.6,31.1,103.2,64.9
	c20.1,25.5,32.2,54.4,36.5,86.6C861,159.9,861.4,164.3,862,168.6z M480,358.5c0.3,0,0.6,0,0.9,0c0-4.5,0-9,0-13.5
	c0.1-13.7,0.6-27.5,0.1-41.2c-0.4-12.9-6.8-20.8-18.7-23.4c-9-2-18.2-3.6-27.3-3.9c-17.1-0.6-34.3-0.4-51.4-0.1
	c-10,0.2-20,1.4-29.7,4.2c-8.3,2.4-15.3,6.6-20.1,13.9c-2.3,3.4-1.7,4.4,2.2,5c0.8,0.1,1.6,0.3,2.4,0.5c14.9,3,25,11.1,27.5,26.6
	c1.4,8.5,2.2,17,2.7,25.6c1.3,18.7,1.2,37.5-1.2,56.2c-0.9,6.9-2.2,13.8-5.4,20.1c-2.6,5.2-6.6,8.5-12.6,7.6
	c-2.7-0.4-5.5-1.6-7.9-3.1c-6.7-4.2-11.8-10.2-16.6-16.3c-14.8-18.8-27.4-39.1-38.5-60.2c-8.8-16.6-16.6-33.8-24.2-50.9
	c-4.3-9.6-13.5-15.7-24.2-15.8c-26.8-0.2-53.5-0.1-80.3,0c-2.7,0-5.4,0.2-8,0.5c-10.6,1.4-14,7.6-9.6,17.3c0,0.1,0.1,0.2,0.1,0.2
	c26.5,54.9,55.9,108.1,90.3,158.5c17.2,25.2,35.7,49.5,57.4,71.1c30.7,30.5,67.7,46.6,111,48c19.7,0.6,39.5,0.5,59.2,0.6
	c3.4,0,6.8-0.1,10.2-0.5c10.4-1.5,11.9-5.6,11.9-13.1c0-5.3,0.4-10.6,1.1-15.8c1-7.1,2.9-14.1,7.4-20c6.9-9,17.5-14.3,29.3-5.7
	c5.8,4.2,11.2,9,16.2,14.1c10.2,10.6,19.9,21.7,30.1,32.4c9.6,10,20.5,18.2,33.8,22.7c7.6,2.6,15.3,3,23.3,2.8
	c24.9-0.7,49.9-0.8,74.9-1.1c6-0.1,11.7-1.5,17.2-3.9c8.3-3.7,12-9.4,10.8-17.5c-0.5-3.4-1.7-6.9-3.5-9.8c-4.5-7.3-9-14.7-14.3-21.5
	c-14.7-18.8-32.1-35.1-49.6-51.2c-7.4-6.8-14.7-13.7-21.4-21.2c-8.6-9.6-9.2-17.7-3-29.1c1.3-2.4,2.7-4.9,4.4-7.1
	c10.7-14.1,21.4-28.1,32.3-42.1c15.3-19.8,30.6-39.7,42.9-61.6c5.5-9.9,10.7-19.9,12.2-31.4c0.9-7.1-1.8-11.6-8.8-13.2
	c-4.7-1-9.6-1.6-14.4-1.6c-33.2,0-66.4,0.3-99.6,0.5c-1.5,0-3.1,0.4-4.4,1c-5.8,2.5-9.8,6.7-12.2,12.6
	c-14.3,36.1-32.7,70-55.6,101.3c-6.7,9.2-13.7,18.2-23,25.1c-9,6.6-15.5,6.4-21.9-5.7c-0.7-1.3-1.3-2.6-1.5-4
	c-0.9-4.7-2.2-9.3-2.2-14C479.9,391.3,480,374.9,480,358.5z"/>
</svg>
