<?xml version="1.0" encoding="utf-8"?>
<!-- Generator: Adobe Illustrator 19.2.1, SVG Export Plug-In . SVG Version: 6.00 Build 0)  -->
<svg version="1.1" id="Layer_1" xmlns="http://www.w3.org/2000/svg" xmlns:xlink="http://www.w3.org/1999/xlink" x="0px" y="0px"
	 viewBox="0 0 1200 863.7" style="enable-background:new 0 0 1200 863.7;" xml:space="preserve">
<path d="M0,216c1.3-7.3,2.1-14.8,3.9-22C20.8,125.5,63,80.5,131.5,63.3C230,38.6,330,21.7,430.9,10.3c80.8-9.1,161.7-13.1,243-8.2
	c61.7,3.8,123.1,10.6,184.3,20c69.3,10.6,138.3,23.5,206.4,40c65.5,15.9,108.5,56.3,128.7,120.7c2.9,9.2,3.8,18.9,5.7,28.4
	c0.3,1.6,0.7,3.2,1,4.8c0,9,0,18,0,27c-1.7,9.1-2.7,18.5-5.1,27.4c-18.1,66.2-60.6,107.9-126.6,126c-3.9,1.1-6.9,0.4-10.2-1.9
	c-64.8-44.3-129.6-88.6-194.4-132.8c-2.9-1.9-4.3-4.1-4.7-7.6c-4.6-33.8,0.3-66.1,14.5-97c0.3-0.8,0.7-1.5,1-2.3
	c0.1-0.3,0.1-0.6,0.2-1.5c-183-21-365.9-21-549.6,0c0.7,1.6,1.3,3,1.9,4.4c14,30.8,18.7,63,14.1,96.6c-0.5,3.6-2,4.9-5.5,5.7
	c-99,22.8-198,45.6-297,68.6c-4.9,1.1-7.3,0.1-10-4C13.4,301.4,4.3,275.9,1,248.3c-0.2-1.8-0.7-3.5-1-5.3C0,234,0,225,0,216z"/>
<path d="M737.2,231.5c0-23.7,0-47,0-70.9c9.7,0.6,19,1.1,28.2,1.7c12.1,0.9,24.3,2,36.4,2.7c3.3,0.2,4.5,1.5,5.3,4.6
	c44.1,167.6,134.8,304.6,271.3,411.2c5.6,4.4,7.7,8.6,7.7,15.6c-0.3,86.8-0.2,173.7-0.2,260.5c0,2.1,0,4.3,0,6.8
	c-324,0-647.5,0-971.7,0c0-1.8,0-3.6,0-5.3c0-88.8,0-177.7-0.1-266.5c0-3.4,0.8-5.8,3.7-8C256.1,477,348.1,339.2,392.7,170
	c0.9-3.5,2.2-4.8,5.9-5.1c19.5-1.2,38.9-2.7,58.3-4c1.8-0.1,3.6,0,5.8,0c0,23.7,0,46.9,0,70.6C554.3,231.5,645.3,231.5,737.2,231.5z
	 M599.9,725.8c116.7,0.1,211.6-94.7,211.8-211.4c0.2-116.9-94.7-212-211.6-212c-116.8,0-211.6,94.6-211.8,211.3
	C388,630.6,483,725.7,599.9,725.8z"/>
<path d="M600,651.1c-75.8,0-137-61.3-137-137c0-76,61.3-137.1,137.5-137.1c75.4,0.1,136.6,61.5,136.6,137
	C737,589.8,675.7,651.1,600,651.1z"/>
</svg>
