<?xml version="1.0" encoding="utf-8"?>
<!-- Generator: Adobe Illustrator 19.2.1, SVG Export Plug-In . SVG Version: 6.00 Build 0)  -->
<svg version="1.1" id="Layer_1" xmlns="http://www.w3.org/2000/svg" xmlns:xlink="http://www.w3.org/1999/xlink" x="0px" y="0px"
	 viewBox="0 0 459.5 279.8" style="enable-background:new 0 0 459.5 279.8;" xml:space="preserve">
<style type="text/css">
	.st0{fill:#FFFFFF;}
</style>
<path class="st0" d="M84.4,218.9c-3.5,6.7-7.8,12.5-13.3,17.5c-8.1,7.4-17.5,11.9-28.2,13.8c-4.1,0.7-8.2,1-12.4,0.9
	c-3.9-0.1-7.6-0.9-11.2-2.3c-4.6-1.9-8.2-5-10.9-9.1c-2.1-3.2-2.7-6.8-2.4-10.6c0.2-3.5,1.1-6.8,2.7-9.9c1.5-2.9,3.5-5.3,6.2-7.2
	c5.7-4,12-6.3,18.8-7.5c10.1-1.8,20.4-1.8,30.6-1.1c2.7,0.2,5.4,0.4,8.3,0.6c3.4-14.1,6.9-28.2,10.3-42.4c-1-0.4-1.9-0.8-2.8-1.2
	c-2.5-1.1-4.9-2.3-6.8-4.3c-2.5-2.7-2.9-5.5-0.7-8.5c1.2-1.7,2.6-3.3,4.3-4.4c3.4-2.3,7.1-4.4,10.7-6.3c1.4-0.7,2.2-1.6,2.6-3.1
	c1.7-6.5,3.6-12.9,5.5-19.4c1.8-6.2,5.5-10.9,11.1-14.2c1.7-1,3.4-1.3,5.5-0.6c-2.4,9.5-4.7,19-7.2,28.8c0.6-0.2,0.9-0.2,1.1-0.4
	c14.7-9,28.1-19.5,39.1-32.9c8.5-10.4,14.8-22,17.7-35.2c1.2-5.3,1.6-10.7,1.3-16.2c-0.1-1,0-2.1-0.1-3.1c-0.2-2.3,0.8-4,2.7-5.3
	c3.4-2.2,8.3-3.3,12.8-0.2c4.5,3,6.6,7.4,7.5,12.6c1.2,7.1-0.3,13.8-2.2,20.6c-4.7,16.6-14.3,29.8-27.5,40.7
	c-14,11.5-29.8,20.1-46.5,27c-2.1,0.8-4.2,1.7-6.3,2.4c-1,0.4-1.5,0.9-1.8,2c-1.8,7.5-3.7,15.1-5.5,22.6c0,0.1,0.1,0.3,0.1,0.8
	c0.6-0.8,1.2-1.5,1.7-2.2c4.3-5.9,8.8-11.6,14-16.7c2.6-2.6,5.4-5,8.7-6.7c2.7-1.5,5.6-2.3,8.8-1.6c4,0.8,6.1,3.1,6.5,7.2
	c0.4,3.9-0.3,7.6-1.3,11.4c-1.8,7.1-4.7,13.7-7.7,20.4c-1.6,3.6-3.1,7.2-4.6,10.8c-0.5,1.2-0.9,2.4-0.3,3.7c1.3,0.7,2.6,0.3,3.6-0.5
	c1.7-1.2,3.3-2.5,4.7-4.1c5.2-6,9.2-12.7,12.4-19.9c1.8-4,2.6-8.5,3.8-12.9c1.8-6.2,3.5-12.5,5.2-18.7c1-3.4,3-5.2,6.2-5.4
	c1.2-0.1,2.4,0.1,3.5,0.5c2,0.6,3.2,2,3.4,4.2c0,0.8,0.1,1.5,0.1,2.7c1.2-1,2.1-1.8,3-2.5c3.4-2.4,6.7-4.9,10.1-7.2
	c2-1.3,4.4-1.9,6.9-1.4c3.1,0.5,5.3,2.1,6.8,4.8c1.1,2.1,1.7,4.3,1.8,6.6c0.5,6.9-0.8,13.5-2.7,20.1c-2.1,7.4-4.5,14.7-8.5,21.9
	c0.9-0.5,1.4-0.6,1.8-0.9c3.9-2.7,6.5-6.4,9-10.4c2.1-3.4,2.1-7.1,2.7-10.7c1.7-10.6,5.2-20.6,11-29.7c0.6-0.9,1.2-1.9,1.9-2.7
	c6.2-7.8,14.7-10.4,24.2-7.3c1,0.3,2.1,0.8,3.2,1.2c0.4-1.1,0.8-2,1.2-3c1.5-3.1,6.1-5.2,9.4-4.1c0.9,0.3,1.6,0.9,1.5,1.9
	c0,1.1-0.1,2.2-0.5,3.3c-3.4,11.7-6.7,23.4-8.9,35.3c-0.7,3.5-1,7.1-1.4,10.7c-0.1,1.2,0,2.4,0.1,3.6c0.3,2,1.2,2.4,3,1.5
	c0.5-0.2,1-0.5,1.4-0.9c0.9-0.7,1.7-1.5,2.5-2.2c2.1-1.9,3.2-3.9,2.7-7.1c-0.7-5.2,0.2-10.4,1.4-15.5c1.5-6.8,3.3-13.5,6.2-19.9
	c1.3-2.8,2.7-5.5,4.4-8c5.1-7.5,12.4-10.8,21.4-10.5c4.6,0.1,7.6,2.8,8.4,7.4c0.7,4,0,7.8-2.2,11.3c-1,1.6-2.4,2.8-4.3,3.2
	c-1.6,0.4-3.1,0.1-4.1-1.2c-1-1.3-1.2-2.7-0.4-4.2c0.5-1,0.9-2.1,1.1-3.1c0.3-1.5-0.5-2.5-2-2.7c-2.3-0.4-4.4,0.1-5.9,1.9
	c-1.6,1.9-3.1,3.9-4.3,6c-3.3,6-5.2,12.5-6.4,19.3c-0.8,4.4-1.3,8.9-0.4,13.4c0.3,1.3,0.6,2.7,1.2,3.9c1.4,3.1,4,4.2,7.3,3.5
	c2.9-0.7,5.5-1.9,7.5-4c1.9-1.9,3.6-3.8,5.2-6c2.1-3,4-6.2,5.9-9.3c0.4-0.7,0.7-1.6,0.9-2.5c2.4-9.9,4.7-19.7,7.2-29.6
	c1-4.1,2.5-8.1,4.9-11.7c1.7-2.5,4.3-3.6,7.1-4c2.9-0.4,3.7,0.9,2.9,3.7c-2.2,7.3-4.3,14.6-6.4,21.8c-0.1,0.3-0.1,0.6,0.1,1
	c0.4-0.7,0.7-1.4,1.1-2c4.2-8.2,9.4-15.8,16.2-22.2c2.5-2.4,5.2-4.5,8.4-5.9c2-0.9,4.1-1.4,6.3-0.8c3.2,0.8,4.8,3.1,4.6,6.3
	c-0.2,3.6-3.5,7.2-6.9,7.1c-5-0.2-8.9,2.1-12.4,5.3c-1.9,1.8-3.7,3.8-5.3,5.9c-2.3,2.9-4.4,5.9-6.5,8.9c-0.4,0.5-0.7,1.2-0.7,2
	c1-0.7,1.9-1.6,3-2.2c2-1.1,4-2.4,6.2-3.1c4.8-1.6,8.8,1,9.8,6c0.6,3.3,0.3,6.5-0.7,9.7c-0.6,1.7-1.3,3.4-1.9,5.2
	c-0.5,1.4-0.9,2.7-1.3,4.1c-0.4,1.3-0.5,2.6,0.7,3.5c1,0.7,3.4,0.6,4.5-0.2c0.6-0.4,1.1-0.9,1.6-1.5c1.2-1.5,2.4-3,3.6-4.5
	c1.9-2.4,2.6-5,2.7-8.1c0.5-15,5-28.7,13.4-41.2c3.1-4.6,7.2-7.9,12.7-9.1c4.4-0.9,8.7-0.4,12.9,1.3c0.7,0.3,1.4,0.6,2.3,0.9
	c0.7-1.4,1.2-2.6,1.8-3.8c1.1-2.2,2.9-3.3,5.3-3.5c1.1-0.1,2.3-0.1,3.4,0c2.6,0.3,3.8,2,3.2,4.6c-0.1,0.5-0.4,1.1-0.5,1.6
	c-4.3,12.2-8.4,24.5-11.1,37.2c-0.7,3-0.9,6.2-1.2,9.2c-0.1,0.7,0,1.4,0.1,2.2c0.3,1.8,1.2,2.4,3,2.3c1.6-0.1,2.9-0.9,4-2
	c2.3-2,3.9-4.5,5.4-7c0.7-1.2,1.3-2.4,2-3.7c1.3,0.8,1.4,2.2,1.7,3.3c0.2,0.8,0.2,1.8,0,2.6c-2,8.4-6.5,14.7-14.9,17.6
	c-3.7,1.3-7.2,0.5-10-2.2c-1.6-1.4-2.8-3.2-4.2-5c-0.4,0.6-0.8,1.3-1.3,2c-2.1,3.5-4.8,6.6-8.3,8.8c-2.4,1.5-5,2.6-7.8,2.6
	c-4.3,0.1-7.3-1.8-9.4-5.4c-0.4-0.7-0.7-1.4-1.2-2.2c-1.1,1.5-2.1,2.8-3.1,4.1c-2.8,3.5-6,6.4-9.9,8.5c-3.3,1.8-6.6,2.3-9.8-0.3
	c-3.1-2.5-4.7-7.4-3.5-11c0.6-1.8,1.5-3.5,2.3-5.3c0.6-1.4,1.2-2.8,1.7-4.2c0.2-0.6,0.3-1.2,0.4-1.9c0.2-4-2.3-5.7-5.8-3.8
	c-4.2,2.2-7.3,5.7-10.2,9.3c-0.4,0.5-0.6,1.3-0.7,2c-1.3,5.4-2.6,10.7-3.9,16.1c-0.9,3.6-3.1,5.9-6.6,6.9c-0.8,0.2-1.6,0.4-2.3,0.4
	c-2.6,0-3.8-1.4-3.3-4c0.2-1.2,0.5-2.4,0.4-3.8c-0.5,0.7-1.1,1.3-1.6,2c-2.7,3.5-5.8,6.6-9.6,8.9c-5.2,3.1-10.6,3.4-16.1,1.1
	c-1.9-0.8-3.5-2.1-5.5-3.3c-0.3,0.4-0.8,1-1.3,1.6c-1.9,2.6-4,5-6.6,6.9c-6.4,4.7-13,3.5-17.2-3.2c-0.3-0.5-0.7-1.1-1.1-1.9
	c-0.5,0.8-1,1.5-1.4,2.2c-2.5,4.1-5.6,7.6-9.9,9.8c-2,1-4.1,1.7-6.4,1.7c-4.4,0.1-7.5-2-9.5-5.8c-0.6-1.2-1-2.4-1.6-3.7
	c-10.5,16.2-31.4,20.7-44.3,13.4c-2.1,8.2-4.3,16.4-6.5,24.8c2.3,0.3,4.5,0.7,6.6,0.9c8.3,1,16.6,2.1,25,3.1
	c6.5,0.8,13,1.5,19.5,2.2c6.3,0.6,12.6,1.1,18.9,1.6c5.8,0.5,11.6,0.8,17.5,1.2c3.7,0.2,7.3,0.5,11,0.6c20.5,0.8,40.9,1.1,61.4,0.2
	c9.2-0.4,18.4-0.8,27.5-1.6c20.7-1.8,41.3-4.4,61.4-10c9.8-2.7,18.9-6.8,26.9-13.2c1.6-1.2,3-2.6,4.4-4.1c1-1.1,1.9-2.4,2.6-3.7
	c2.1-4.1,1.1-7.5-3-9.7c-3.2-1.8-6.8-2.5-10.4-2.4c-4.6,0.1-9.3,0.4-13.8,1.2c-16.1,2.6-31.4,7.9-46.6,13.6
	c-17.7,6.6-35,14-51.8,22.6c-3.1,1.6-6,3.4-9,5c-0.6,0.3-1.3,0.7-2,0.7c-6.3,0-12.6,0-19-0.1c-0.1,0-0.3-0.1-0.6-0.3
	c0.3-0.3,0.5-0.6,0.8-0.7c30.3-18.4,61.7-34.5,95.4-46c13.2-4.5,26.7-8.1,40.6-10.2c7.8-1.2,15.6-1.9,23.4-1.1
	c3.6,0.4,7.1,1.1,10.4,2.5c7.7,3.4,11.5,11.8,9.2,20.4c-1,3.8-2.9,7.1-5.3,10.2c-4.6,6-10.4,10.6-16.8,14.5
	c-10.5,6.5-21.8,10.9-33.6,14.2c-10.3,2.9-20.8,4.7-31.5,5.9c-28.3,3-56.7,3.4-85.1,3c-10.7-0.1-21.4-0.4-32.1-0.7
	c-9.3-0.3-18.5-0.8-27.8-1.3c-6.4-0.3-12.8-0.7-19.2-1.1c-7.3-0.5-14.5-1.1-21.8-1.7c-5.9-0.5-11.8-1-17.7-1.6
	c-6.8-0.7-13.7-1.4-20.5-2.2c-6-0.7-12.1-1.4-18.1-2.1c-6.1-0.7-12.2-1.5-18.3-2.2c-5.2-0.6-10.5-1.1-15.7-1.7
	C87.9,219.2,86.2,219.1,84.4,218.9z M137.9,188.5c-0.1-0.1-0.3-0.1-0.4-0.2c-0.4,0.6-0.8,1.3-1.3,1.8c-2.4,2.7-4.6,5.5-7.2,8
	c-2.3,2.3-5.2,4-8.4,5c-6.7,2.2-13.2-3.1-12.3-10.2c0.5-3.8,1.9-7.4,3.3-11c1.6-4.5,3.3-9,4.8-13.5c0.9-2.6,1.1-5.3,0.7-8.1
	c-0.4-2.4-1.5-3.1-3.7-1.9c-1.8,1.1-3.7,2.3-5.2,3.8c-4.6,4.8-9,9.7-13.5,14.7c-0.6,0.7-0.9,1.7-1.2,2.6c-0.8,3.2-1.5,6.4-2.3,9.6
	c-1.3,5.5-2.6,11-4,16.9c4.9,1.1,9.9,1.3,14.7,2c4.8,0.7,9.7,1.1,14.5,1.7c4.9,0.6,9.8,1.2,14.7,1.8
	C133.7,203.8,135.8,196.1,137.9,188.5z M181.4,148.8c0-4.2-0.6-6.7-1.9-8.4c-2.1-2.8-4.1-3.1-7-1.3c-0.5,0.3-1,0.6-1.3,1
	c-2.6,2.7-5.1,5.5-7.7,8.2c-0.4,0.4-0.6,1-0.7,1.5c-2.4,9.2-4.7,18.4-7.1,27.6c-0.4,1.4,0,2.5,0.8,3.6c1.2,1.4,2.6,2.3,4.5,2.4
	c3.3,0.3,5.9-1.2,8.1-3.4c2.2-2.2,3.9-4.9,5.2-7.7c2.5-5.4,4.5-10.9,5.9-16.7C180.8,153,181.2,150.3,181.4,148.8z M377.2,95.2
	c-4.8-4.3-9.4-4.2-13.4,0.2c-1,1.1-1.9,2.3-2.8,3.6c-3.1,4.6-5.4,9.6-7.2,14.8c-1.3,3.8-2.2,7.7-2.6,11.6c-0.3,3.5,0,7,1.6,10.3
	c1.5,2.9,3.8,3.7,6.5,1.8c4.5-3,8.1-7,9.7-12.3c2-6.6,3.7-13.4,5.5-20.1C375.4,101.8,376.3,98.5,377.2,95.2z M209.7,157.8
	c-0.2,4.6,0.6,8,2,10.2c1.5,2.3,3.3,2.9,5.7,1.7c0.9-0.4,1.7-0.9,2.4-1.6c1.9-2,3.8-3.9,5.4-6.1c1-1.4,1.8-3,2.3-4.7
	c1.2-4.1,2.3-8.3,3.4-12.5c1.4-5.5,2.9-11,4.3-16.5c0.2-0.8,0.7-1.7-0.2-2.4c-2-1.6-4.1-2.7-6.8-2.3c-3.1,0.5-5.3,2.4-7.1,4.9
	c-4.1,5.5-6.9,11.6-9.1,18.1C210.6,150.6,209.7,154.6,209.7,157.8z M69.3,216.8c-0.6-0.1-1.1-0.2-1.5-0.3
	c-7.6-0.2-15.2-0.6-22.7,0.5c-3.6,0.5-7.2,1.3-10.6,2.8c-2.1,1-4.1,2.2-5.5,4.1c-4.2,5.6-2.6,11.1,4.6,12.8
	c3.4,0.8,6.8,0.5,10.2-0.2c11.1-2.3,19.1-8.8,25-18.2C68.9,217.9,69,217.5,69.3,216.8z"/>
<path class="st0" d="M274.8,236.6c-0.7,0.4-1.3,0.7-1.9,1c-30.2,12.3-61.1,22.9-92.9,30.5c-11.6,2.8-23.3,4.9-35.1,6.3
	c-8.7,1-17.4,1.4-26.1,1c-5.7-0.3-11.3-1-16.6-3.2c-2.8-1.2-5.5-2.6-7.7-4.8c-6.7-6.3-5.3-15,3-19c2.8-1.3,5.7-2,8.8-2.2
	c4.3-0.2,8.4,0.4,12.6,1c9.1,1.4,18.3,1.6,27.5,1.5c11.4-0.1,22.7-0.8,34-2c23-2.3,45.7-6.2,68.2-11.3c1.1-0.2,2.2-0.4,3.3-0.3
	c7.4,0.3,14.9,0.6,22.3,1C274.4,236.3,274.5,236.4,274.8,236.6z"/>
<path class="st0" d="M318,63.9c-0.9,3-3,5.1-5.2,6.9c-7.3,6.2-15.5,11-24.6,14.2c-8,2.8-16.1,3.8-24.5,3.1c-8.6-0.7-17.2-1-25.9-1.5
	c-10.9-0.6-21.3,1.6-31.4,5.3c-3.2,1.2-6.5,2.3-9.7,3.5c-0.7,0.2-1.3,0.4-2.3,0.4c0.5-0.7,0.9-1.3,1.5-2c8.2-9.9,18.6-16.2,31-19.3
	c5.2-1.3,10.5-2,15.9-1.9c9.4,0.2,18.7,0.3,28.1,0.8c15.7,0.9,30.7-2.2,45-8.6C316.6,64.4,317.3,64.2,318,63.9z"/>
<path class="st0" d="M235.8,18c2.6,1.2,5.1,2.2,7.3,3.4c1.1,0.6,1.9,1.6,2.7,2.6c2.3,3.1,2.7,6.8,2.7,10.5c0,1.5-0.2,3-0.2,4.6
	c0,0.9,0.1,1.9,0.2,2.8c2.3,0.5,2.9,0.2,2.9-1.8c0-2.1-0.4-4.1-0.6-6.2c-0.1-1-0.2-1.9-0.2-2.9c0-0.5,0.1-1.1,0.4-1.6
	c0.5-1.2,2-2.2,3-1.9c1.1,0.2,1.9,1.8,1.8,3.3c-0.2,1.4-0.4,2.8-0.4,4.3c0,0.6,0.1,1.3,0.3,1.8c0.2,0.4,0.8,0.9,1.3,0.8
	c0.3,0,0.9-0.7,0.9-1.1c0.2-1.3,0.2-2.7,0.2-4c-0.1-1.4-0.4-2.8-0.6-4.3c-0.3-2.9,0.3-3.6,3.6-4.2c0.1,0.8,0.3,1.5,0.3,2.2
	c0,1-0.1,1.9-0.1,2.9c0,1,0.1,2,1.5,2c1.4,0.1,2.4-0.5,2.7-1.8c0.1-0.4,0.1-0.8,0.1-1.2c-0.6-4,2-6.4,4.5-8.7
	c0.8-0.7,1.9-1.2,3.1-1.9c0.1,0.8,0.2,1.4,0.2,2c0,10,0,20,0,30c0,1.4-0.5,2.4-1.5,3.3c-4,3.6-8.8,5.5-14.1,6
	c-4.5,0.4-8.9,0.2-13.3-1.3c-2.9-1-5.6-2.4-7.6-4.8c-0.6-0.7-1.1-1.7-1.1-2.5C235.8,39.6,235.8,28.9,235.8,18z"/>
<path class="st0" d="M254.6,4.2c4.5,0.1,9,0.7,13.1,2.6c1.5,0.7,3,1.6,4.2,2.7c2,1.9,2,4.3,0.1,6.4c-1.8,2.1-4.2,3.5-6.9,4.2
	c-6.9,1.8-13.9,1.8-20.8,0c-2.3-0.6-4.4-1.8-6.3-3.4c-3-2.6-2.9-5.6,0.2-8.1c2.8-2.2,6.1-3.2,9.5-3.7C250,4.5,252.3,4.4,254.6,4.2z
	 M271.8,14.3c0.8-1.9,0.3-3.1-0.8-4c-1.2-1-2.6-1.9-4-2.6c-3.1-1.5-6.6-2-10-2.2c-5.1-0.3-10.2,0.1-15,2.2c-1.5,0.7-2.9,1.7-4.1,2.8
	c-1.3,1.2-1.2,2-0.3,3.8c1.4-2.4,3.7-3.5,6.2-4.2c7.2-2.1,14.5-2,21.7,0C267.9,10.8,270.1,11.9,271.8,14.3z"/>
</svg>
